<?xml version="1.0" standalone="no"?>
<svg xmlns:xlink="http://www.w3.org/1999/xlink" id="wave" style="transform:rotate(0deg); transition: 0.3s" viewBox="0 0 1440 360" version="1.1" xmlns="http://www.w3.org/2000/svg"><defs><linearGradient id="sw-gradient-0" x1="0" x2="0" y1="1" y2="0"><stop stop-color="rgba(57.525, 133.815, 193.847, 1)" offset="0%"/><stop stop-color="rgba(187.966, 255, 255, 1)" offset="100%"/></linearGradient></defs><path style="transform:translate(0, 0px); opacity:1" fill="url(#sw-gradient-0)" d="M0,252L40,258C80,264,160,276,240,282C320,288,400,288,480,252C560,216,640,144,720,132C800,120,880,168,960,168C1040,168,1120,120,1200,114C1280,108,1360,144,1440,138C1520,132,1600,84,1680,84C1760,84,1840,132,1920,174C2000,216,2080,252,2160,228C2240,204,2320,120,2400,96C2480,72,2560,108,2640,156C2720,204,2800,264,2880,240C2960,216,3040,108,3120,108C3200,108,3280,216,3360,246C3440,276,3520,228,3600,186C3680,144,3760,108,3840,78C3920,48,4000,24,4080,12C4160,0,4240,0,4320,6C4400,12,4480,24,4560,54C4640,84,4720,132,4800,150C4880,168,4960,156,5040,180C5120,204,5200,264,5280,258C5360,252,5440,180,5520,162C5600,144,5680,180,5720,198L5760,216L5760,360L5720,360C5680,360,5600,360,5520,360C5440,360,5360,360,5280,360C5200,360,5120,360,5040,360C4960,360,4880,360,4800,360C4720,360,4640,360,4560,360C4480,360,4400,360,4320,360C4240,360,4160,360,4080,360C4000,360,3920,360,3840,360C3760,360,3680,360,3600,360C3520,360,3440,360,3360,360C3280,360,3200,360,3120,360C3040,360,2960,360,2880,360C2800,360,2720,360,2640,360C2560,360,2480,360,2400,360C2320,360,2240,360,2160,360C2080,360,2000,360,1920,360C1840,360,1760,360,1680,360C1600,360,1520,360,1440,360C1360,360,1280,360,1200,360C1120,360,1040,360,960,360C880,360,800,360,720,360C640,360,560,360,480,360C400,360,320,360,240,360C160,360,80,360,40,360L0,360Z"/></svg>