<?xml version="1.0" standalone="no"?>
<svg xmlns:xlink="http://www.w3.org/1999/xlink" id="wave" style="transform:rotate(0deg); transition: 0.3s" viewBox="0 0 1440 410" version="1.1" xmlns="http://www.w3.org/2000/svg"><defs><linearGradient id="sw-gradient-0" x1="0" x2="0" y1="1" y2="0"><stop stop-color="rgba(78.903, 135.584, 180.186, 1)" offset="0%"/><stop stop-color="rgba(218.199, 240.041, 255, 1)" offset="100%"/></linearGradient></defs><path style="transform:translate(0, 0px); opacity:1" fill="url(#sw-gradient-0)" d="M0,287L30,293.8C60,301,120,314,180,321.2C240,328,300,328,360,287C420,246,480,164,540,150.3C600,137,660,191,720,191.3C780,191,840,137,900,129.8C960,123,1020,164,1080,157.2C1140,150,1200,96,1260,95.7C1320,96,1380,150,1440,198.2C1500,246,1560,287,1620,259.7C1680,232,1740,137,1800,109.3C1860,82,1920,123,1980,177.7C2040,232,2100,301,2160,273.3C2220,246,2280,123,2340,123C2400,123,2460,246,2520,280.2C2580,314,2640,260,2700,211.8C2760,164,2820,123,2880,88.8C2940,55,3000,27,3060,13.7C3120,0,3180,0,3240,6.8C3300,14,3360,27,3420,61.5C3480,96,3540,150,3600,170.8C3660,191,3720,178,3780,205C3840,232,3900,301,3960,293.8C4020,287,4080,205,4140,184.5C4200,164,4260,205,4290,225.5L4320,246L4320,410L4290,410C4260,410,4200,410,4140,410C4080,410,4020,410,3960,410C3900,410,3840,410,3780,410C3720,410,3660,410,3600,410C3540,410,3480,410,3420,410C3360,410,3300,410,3240,410C3180,410,3120,410,3060,410C3000,410,2940,410,2880,410C2820,410,2760,410,2700,410C2640,410,2580,410,2520,410C2460,410,2400,410,2340,410C2280,410,2220,410,2160,410C2100,410,2040,410,1980,410C1920,410,1860,410,1800,410C1740,410,1680,410,1620,410C1560,410,1500,410,1440,410C1380,410,1320,410,1260,410C1200,410,1140,410,1080,410C1020,410,960,410,900,410C840,410,780,410,720,410C660,410,600,410,540,410C480,410,420,410,360,410C300,410,240,410,180,410C120,410,60,410,30,410L0,410Z"/></svg>