<?xml version="1.0" standalone="no"?>
<svg xmlns:xlink="http://www.w3.org/1999/xlink" id="wave" style="transform:rotate(0deg); transition: 0.3s" viewBox="0 0 1440 320" version="1.1" xmlns="http://www.w3.org/2000/svg"><defs><linearGradient id="sw-gradient-0" x1="0" x2="0" y1="1" y2="0"><stop stop-color="rgba(44, 62, 80, 1)" offset="0%"/><stop stop-color="rgba(139.953, 199.476, 234.829, 1)" offset="100%"/></linearGradient></defs><path style="transform:translate(0, 0px); opacity:1" fill="url(#sw-gradient-0)" d="M0,224L40,229.3C80,235,160,245,240,250.7C320,256,400,256,480,224C560,192,640,128,720,117.3C800,107,880,149,960,149.3C1040,149,1120,107,1200,101.3C1280,96,1360,128,1440,122.7C1520,117,1600,75,1680,74.7C1760,75,1840,117,1920,154.7C2000,192,2080,224,2160,202.7C2240,181,2320,107,2400,85.3C2480,64,2560,96,2640,138.7C2720,181,2800,235,2880,213.3C2960,192,3040,96,3120,96C3200,96,3280,192,3360,218.7C3440,245,3520,203,3600,165.3C3680,128,3760,96,3840,69.3C3920,43,4000,21,4080,10.7C4160,0,4240,0,4320,5.3C4400,11,4480,21,4560,48C4640,75,4720,117,4800,133.3C4880,149,4960,139,5040,160C5120,181,5200,235,5280,229.3C5360,224,5440,160,5520,144C5600,128,5680,160,5720,176L5760,192L5760,320L5720,320C5680,320,5600,320,5520,320C5440,320,5360,320,5280,320C5200,320,5120,320,5040,320C4960,320,4880,320,4800,320C4720,320,4640,320,4560,320C4480,320,4400,320,4320,320C4240,320,4160,320,4080,320C4000,320,3920,320,3840,320C3760,320,3680,320,3600,320C3520,320,3440,320,3360,320C3280,320,3200,320,3120,320C3040,320,2960,320,2880,320C2800,320,2720,320,2640,320C2560,320,2480,320,2400,320C2320,320,2240,320,2160,320C2080,320,2000,320,1920,320C1840,320,1760,320,1680,320C1600,320,1520,320,1440,320C1360,320,1280,320,1200,320C1120,320,1040,320,960,320C880,320,800,320,720,320C640,320,560,320,480,320C400,320,320,320,240,320C160,320,80,320,40,320L0,320Z"/></svg>