<?xml version="1.0" standalone="no"?>
<svg xmlns:xlink="http://www.w3.org/1999/xlink" id="wave" style="transform:rotate(0deg); transition: 0.3s" viewBox="0 0 1440 480" version="1.1" xmlns="http://www.w3.org/2000/svg"><defs><linearGradient id="sw-gradient-0" x1="0" x2="0" y1="1" y2="0"><stop stop-color="rgba(105.813, 156.354, 196.124, 1)" offset="0%"/><stop stop-color="rgba(218.199, 240.041, 255, 1)" offset="100%"/></linearGradient></defs><path style="transform:translate(0, 0px); opacity:1" fill="url(#sw-gradient-0)" d="M0,384L34.3,384C68.6,384,137,384,206,392C274.3,400,343,416,411,416C480,416,549,400,617,384C685.7,368,754,352,823,304C891.4,256,960,176,1029,144C1097.1,112,1166,128,1234,152C1302.9,176,1371,208,1440,192C1508.6,176,1577,112,1646,88C1714.3,64,1783,80,1851,120C1920,160,1989,224,2057,256C2125.7,288,2194,288,2263,304C2331.4,320,2400,352,2469,368C2537.1,384,2606,384,2674,376C2742.9,368,2811,352,2880,352C2948.6,352,3017,368,3086,320C3154.3,272,3223,160,3291,128C3360,96,3429,144,3497,144C3565.7,144,3634,96,3703,88C3771.4,80,3840,112,3909,160C3977.1,208,4046,272,4114,280C4182.9,288,4251,240,4320,184C4388.6,128,4457,64,4526,72C4594.3,80,4663,160,4731,216C4800,272,4869,304,4903,320L4937.1,336L4937.1,480L4902.9,480C4868.6,480,4800,480,4731,480C4662.9,480,4594,480,4526,480C4457.1,480,4389,480,4320,480C4251.4,480,4183,480,4114,480C4045.7,480,3977,480,3909,480C3840,480,3771,480,3703,480C3634.3,480,3566,480,3497,480C3428.6,480,3360,480,3291,480C3222.9,480,3154,480,3086,480C3017.1,480,2949,480,2880,480C2811.4,480,2743,480,2674,480C2605.7,480,2537,480,2469,480C2400,480,2331,480,2263,480C2194.3,480,2126,480,2057,480C1988.6,480,1920,480,1851,480C1782.9,480,1714,480,1646,480C1577.1,480,1509,480,1440,480C1371.4,480,1303,480,1234,480C1165.7,480,1097,480,1029,480C960,480,891,480,823,480C754.3,480,686,480,617,480C548.6,480,480,480,411,480C342.9,480,274,480,206,480C137.1,480,69,480,34,480L0,480Z"/></svg>